<svg id="Capa_1" data-name="Capa 1" xmlns="http://www.w3.org/2000/svg" viewBox="0 0 207.5 239.6"><defs><style>.cls-1{fill:#e31f13;}.cls-2{fill:#cc1611;}.cls-3,.cls-4{fill:#fff;}.cls-4,.cls-5{stroke:#e31f13;stroke-miterlimit:10;}.cls-4{stroke-width:1.45px;}.cls-5{fill:none;stroke-width:7px;}</style></defs><title>Nosotros</title><polygon class="cls-1" points="155.53 149.7 155.53 89.9 103.75 60 51.96 89.9 51.96 149.7 103.75 179.6 155.53 149.7"/><polygon class="cls-2" points="52.17 149.93 103.55 179.6 155.33 149.7 155.33 90.37 52.17 149.93"/><path class="cls-3" d="M93.55,113l-.19-1.13h19.82l-.06.83c.26.06.59,0,.74.21a1,1,0,0,1,.25.78c-.26,1.16-.53,2.32-.9,3.45s-.86,2.23-1.29,3.34a14.74,14.74,0,0,1-5,6.73,5.67,5.67,0,0,1-7.32.06,15,15,0,0,1-5.44-7.77,4.15,4.15,0,0,0-.47-.81,1.48,1.48,0,0,1-.17-.33c-.38-1.27-.76-2.55-1.12-3.84a2.12,2.12,0,0,1-.08-.67C92.38,113.07,92.78,112.78,93.55,113Z" transform="translate(0.82 -0.88)"/><path class="cls-3" d="M99.15,98.12v7.43a2.35,2.35,0,0,0,2.66,2.67c1,0,2.06,0,3.09,0a2.25,2.25,0,0,0,2.44-2.48q0-3.48,0-6.94v-.67a10.43,10.43,0,0,1,3.17,2.33,12.8,12.8,0,0,1,3.2,5.3c.15.52.4.69.91.63a8.8,8.8,0,0,1,.89,0V110H91v-3.6c.34,0,.68,0,1,0s.64-.12.78-.56a13.26,13.26,0,0,1,5.65-7.34c.15-.1.32-.19.48-.28A1.89,1.89,0,0,1,99.15,98.12Z" transform="translate(0.82 -0.88)"/><path class="cls-3" d="M100.52,101.56c0-1.2,0-2.39,0-3.59s.47-1.58,1.45-1.58c.8,0,1.6,0,2.41,0a1.66,1.66,0,0,1,1.68,1.84c0,2.35,0,4.71,0,7.06a1.3,1.3,0,0,1-1.31,1.44h-2.83c-.92,0-1.39-.51-1.4-1.52C100.51,104,100.52,102.78,100.52,101.56Z" transform="translate(0.82 -0.88)"/><path class="cls-3" d="M96.66,139.69H55.44a23.75,23.75,0,0,1,0-2.8,29,29,0,0,1,.67-4,6.73,6.73,0,0,1,4.17-4.65c1.85-.78,3.74-1.45,5.6-2.23,1.27-.53,2.51-1.14,3.75-1.77a.77.77,0,0,1,1,.12,8.22,8.22,0,0,0,5.42,2.21,7.88,7.88,0,0,0,5.3-2.18.84.84,0,0,1,1.1-.12c2.67,1.21,5.35,2.38,8,3.55a10.08,10.08,0,0,1,4.11,2.72,8.57,8.57,0,0,1,1.74,4.43c.19,1.48.24,3,.34,4.46A1.06,1.06,0,0,1,96.66,139.69Z" transform="translate(0.82 -0.88)"/><path class="cls-3" d="M67.36,110.75l-.17-1H84.92l0,.73c.23.06.52,0,.66.19a.92.92,0,0,1,.22.7c-.23,1-.48,2.08-.81,3.09s-.77,2-1.16,3a13.17,13.17,0,0,1-4.43,6,5.08,5.08,0,0,1-6.55.05,13.22,13.22,0,0,1-4.86-6.94,3.88,3.88,0,0,0-.43-.73,1.59,1.59,0,0,1-.15-.29c-.34-1.14-.67-2.29-1-3.43a2,2,0,0,1-.07-.6C66.31,110.83,66.68,110.57,67.36,110.75Z" transform="translate(0.82 -0.88)"/><path class="cls-3" d="M72.37,97.47v6.64a2.09,2.09,0,0,0,2.38,2.38c.92,0,1.84,0,2.76,0a2,2,0,0,0,2.19-2.22V97.47a9.43,9.43,0,0,1,2.84,2.09,11.49,11.49,0,0,1,2.86,4.74c.14.46.36.62.81.56a7.11,7.11,0,0,1,.8,0v3.22h-22v-3.22c.3,0,.61,0,.91,0s.57-.11.69-.5a12,12,0,0,1,5-6.57l.44-.24A.79.79,0,0,1,72.37,97.47Z" transform="translate(0.82 -0.88)"/><path class="cls-3" d="M73.6,100.54q0-1.61,0-3.21c0-1,.42-1.41,1.29-1.41.72,0,1.44,0,2.15,0a1.49,1.49,0,0,1,1.51,1.64c0,2.11,0,4.21,0,6.32a1.16,1.16,0,0,1-1.17,1.29c-.84,0-1.69,0-2.53,0s-1.24-.46-1.25-1.36C73.59,102.72,73.6,101.63,73.6,100.54Z" transform="translate(0.82 -0.88)"/><path class="cls-3" d="M150.8,139.22H109.57a26.12,26.12,0,0,1,0-2.8,29,29,0,0,1,.68-4,6.74,6.74,0,0,1,4.16-4.65c1.86-.78,3.75-1.45,5.6-2.23,1.28-.53,2.52-1.14,3.75-1.77a.78.78,0,0,1,1,.12,8.22,8.22,0,0,0,5.42,2.21,7.88,7.88,0,0,0,5.3-2.18.84.84,0,0,1,1.1-.12c2.67,1.21,5.35,2.38,8,3.55a10.08,10.08,0,0,1,4.11,2.72,8.57,8.57,0,0,1,1.74,4.43c.19,1.47.24,3,.34,4.46A1.06,1.06,0,0,1,150.8,139.22Z" transform="translate(0.82 -0.88)"/><path class="cls-3" d="M121.5,110.28l-.17-1h17.73L139,110c.24.06.53,0,.66.19a.92.92,0,0,1,.23.7c-.24,1-.48,2.08-.81,3.09s-.77,2-1.16,3a13.17,13.17,0,0,1-4.43,6,5.08,5.08,0,0,1-6.55.05,13.26,13.26,0,0,1-4.86-6.94,4.5,4.5,0,0,0-.43-.73,2,2,0,0,1-.15-.29c-.34-1.14-.68-2.29-1-3.43a2.05,2.05,0,0,1-.07-.6C120.45,110.36,120.82,110.1,121.5,110.28Z" transform="translate(0.82 -0.88)"/><path class="cls-3" d="M126.51,97v6.64a2.08,2.08,0,0,0,2.37,2.38c.93,0,1.85,0,2.77,0a2,2,0,0,0,2.19-2.23V97a9.39,9.39,0,0,1,2.84,2.09,11.49,11.49,0,0,1,2.86,4.74c.14.46.36.62.81.56a7.11,7.11,0,0,1,.8,0v3.22h-22v-3.22c.3,0,.6,0,.91,0s.57-.11.69-.5a12,12,0,0,1,5-6.57c.14-.09.29-.16.43-.24A1.11,1.11,0,0,1,126.51,97Z" transform="translate(0.82 -0.88)"/><path class="cls-3" d="M127.73,100.07c0-1.07,0-2.14,0-3.21s.42-1.41,1.29-1.41c.72,0,1.43,0,2.15,0a1.49,1.49,0,0,1,1.51,1.64c0,2.11,0,4.21,0,6.32a1.16,1.16,0,0,1-1.17,1.29c-.85,0-1.69,0-2.54,0s-1.23-.45-1.24-1.35C127.73,102.25,127.73,101.16,127.73,100.07Z" transform="translate(0.82 -0.88)"/><path class="cls-4" d="M126.31,145.34H80.21a27.2,27.2,0,0,1,0-3.13A31.21,31.21,0,0,1,81,137.7a7.53,7.53,0,0,1,4.66-5.2c2.07-.87,4.19-1.62,6.26-2.49,1.42-.6,2.82-1.28,4.19-2a.86.86,0,0,1,1.13.13,9.16,9.16,0,0,0,6,2.47,8.79,8.79,0,0,0,5.94-2.44,1,1,0,0,1,1.22-.13c3,1.35,6,2.66,9,4a11.2,11.2,0,0,1,4.59,3.05,9.65,9.65,0,0,1,2,4.94c.22,1.66.26,3.33.38,5A1.32,1.32,0,0,1,126.31,145.34Z" transform="translate(0.82 -0.88)"/><polygon class="cls-5" points="204 177.68 204 61.92 103.75 4.04 3.5 61.92 3.5 177.68 103.75 235.56 204 177.68"/></svg>