<svg id="Capa_1" data-name="Capa 1" xmlns="http://www.w3.org/2000/svg" viewBox="0 0 140.81 162.59"><defs><style>.cls-1{fill:#e31f13;}.cls-2{fill:#cc1611;}.cls-3{fill:#fff;}</style></defs><title>Control procesos</title><polygon class="cls-1" points="140.81 121.95 140.81 40.65 70.41 0 0 40.65 0 121.95 70.41 162.59 140.81 121.95"/><polygon class="cls-2" points="0.55 122.27 70.41 162.59 140.81 121.95 140.81 41.29 0.55 122.27"/><path class="cls-3" d="M32.71,112.91c-1.34-.57-2.56-1-3.72-1.63a.71.71,0,0,0-1,.17,15.52,15.52,0,0,1-3.55,2.74c-1.18.59-1.33.59-2.26-.36-.62-.63-1.24-1.26-1.88-1.86a.85.85,0,0,1-.2-1.09,12,12,0,0,1,2.62-3.79c.88-.86.86-.84.38-1.9a24.36,24.36,0,0,1-1.07-2.72.83.83,0,0,0-.86-.65c-1.32-.12-2.64-.28-4-.42l-.21,0c-1.48-.37-1.64-.58-1.64-2.09,0-.84-.05-1.68,0-2.5a1.2,1.2,0,0,1,.59-.83,9.94,9.94,0,0,1,4.87-.89,1.1,1.1,0,0,0,1.29-1,19,19,0,0,1,1.23-2.95.61.61,0,0,0-.13-.8,15.38,15.38,0,0,1-3-4.06,1.18,1.18,0,0,1,.26-1.62,29.15,29.15,0,0,0,2.08-2.08.94.94,0,0,1,1.21-.24,12.51,12.51,0,0,1,4,2.93.92.92,0,0,0,1.29.25,31,31,0,0,1,3.09-1.29c.37-.13.53-.28.55-.68a17.79,17.79,0,0,1,.69-4.8c.35-1,.45-1.14,1.49-1.14s1.81,0,2.72,0a1,1,0,0,1,1.21.85,34,34,0,0,1,.69,4c.14,1.52.07,1.51,1.49,2.08a15.47,15.47,0,0,1,2.27,1,.87.87,0,0,0,1.23-.25,13.42,13.42,0,0,1,3.76-2.8c.64-.31,1.12-.38,1.64.21s1.36,1.4,2.07,2.07A1,1,0,0,1,52.27,86a10.75,10.75,0,0,1-2.42,3.57c-1.05,1.05-1,1-.43,2.37a22.22,22.22,0,0,1,.94,2.46c.14.42.32.62.79.62a13,13,0,0,1,5.05.78A1.1,1.1,0,0,1,57,97c0,.95,0,1.91,0,2.87a1.12,1.12,0,0,1-.86,1.21,13.26,13.26,0,0,1-4.5.72c-1.12,0-1.06,0-1.42,1.11a22.91,22.91,0,0,1-1.19,2.74.68.68,0,0,0,.1.88c.88,1.08,1.74,2.19,2.6,3.29a2.34,2.34,0,0,1,.26.43c.55,1.16.5,1.37-.45,2.27-.54.5-1.07,1-1.56,1.57a1.24,1.24,0,0,1-1.66.29,12.05,12.05,0,0,1-3.67-2.69,1.1,1.1,0,0,0-1.62-.23,13.59,13.59,0,0,1-2.77,1.11.8.8,0,0,0-.68.82c-.16,1.46-.3,2.93-.57,4.38s-.42,1.47-1.87,1.47c-.81,0-1.62,0-2.43,0s-1-.29-1.22-.92a17.6,17.6,0,0,1-.78-5.14C32.74,113.06,32.71,112.92,32.71,112.91ZM30,98.4a6.21,6.21,0,1,0,6-6.18A6.24,6.24,0,0,0,30,98.4Z" transform="translate(0.39 -2)"/><path class="cls-3" d="M98,111.3c-1.34-.58-2.57-1-3.72-1.63a.7.7,0,0,0-1,.17,15.52,15.52,0,0,1-3.55,2.74c-1.19.59-1.34.59-2.27-.36-.61-.63-1.23-1.26-1.88-1.86a.84.84,0,0,1-.19-1.09,11.82,11.82,0,0,1,2.62-3.79c.87-.86.85-.84.37-1.91a26.29,26.29,0,0,1-1.07-2.71.82.82,0,0,0-.85-.65c-1.32-.12-2.64-.28-4-.43a.76.76,0,0,1-.21,0c-1.47-.37-1.63-.58-1.63-2.09,0-.84,0-1.68,0-2.51a1.22,1.22,0,0,1,.58-.83,10,10,0,0,1,4.87-.88,1.1,1.1,0,0,0,1.29-1,21.75,21.75,0,0,1,1.23-3,.59.59,0,0,0-.13-.79,15.55,15.55,0,0,1-3-4.06,1.21,1.21,0,0,1,.27-1.63c.74-.64,1.4-1.36,2.08-2.07a.92.92,0,0,1,1.2-.24,12.78,12.78,0,0,1,4,2.92.92.92,0,0,0,1.29.26,28,28,0,0,1,3.09-1.29c.37-.14.53-.28.55-.68a17.35,17.35,0,0,1,.69-4.8c.35-1,.44-1.15,1.48-1.15s1.82,0,2.72,0a1,1,0,0,1,1.21.85,34,34,0,0,1,.7,4c.14,1.52.07,1.51,1.49,2.07a17.22,17.22,0,0,1,2.27,1c.55.32.88.11,1.23-.26a13.58,13.58,0,0,1,3.76-2.79c.64-.32,1.11-.38,1.63.2s1.37,1.4,2.08,2.08a1,1,0,0,1,.25,1.22A10.63,10.63,0,0,1,115.15,88c-1,1.05-1,1-.42,2.37a23.52,23.52,0,0,1,.94,2.46c.14.42.32.62.78.62a13.07,13.07,0,0,1,5.06.77,1.13,1.13,0,0,1,.84,1.22c0,.95,0,1.91,0,2.86a1.13,1.13,0,0,1-.87,1.22,13.41,13.41,0,0,1-4.49.72c-1.12,0-1.07,0-1.42,1.11a22.91,22.91,0,0,1-1.19,2.74.68.68,0,0,0,.09.87c.89,1.09,1.75,2.19,2.61,3.3a2.3,2.3,0,0,1,.25.43c.56,1.16.51,1.37-.45,2.27a19.14,19.14,0,0,0-1.55,1.57,1.25,1.25,0,0,1-1.67.29,12.17,12.17,0,0,1-3.66-2.69,1.11,1.11,0,0,0-1.63-.23,12.8,12.8,0,0,1-2.77,1.1.82.82,0,0,0-.67.83c-.16,1.46-.3,2.93-.57,4.38s-.42,1.47-1.87,1.47c-.81,0-1.63,0-2.44,0s-1-.29-1.22-.92a18.35,18.35,0,0,1-.78-5.14A1.89,1.89,0,0,0,98,111.3ZM95.31,96.79a6.21,6.21,0,1,0,6-6.18A6.26,6.26,0,0,0,95.31,96.79Z" transform="translate(0.39 -2)"/><path class="cls-3" d="M36.48,75c.42,0,.83,0,1.24,0A32.23,32.23,0,0,1,46.9,59.89c-.27-.51-.53-1-.76-1.57a22.56,22.56,0,0,1-1.2-3.43,37.21,37.21,0,0,0-12.5,20.45A23.35,23.35,0,0,1,36.48,75Z" transform="translate(0.39 -2)"/><path class="cls-3" d="M89.44,58.9a32.18,32.18,0,0,1,9.84,14.59,22.05,22.05,0,0,1,2.31-.12,24.64,24.64,0,0,1,3,.2A37.33,37.33,0,0,0,91.17,53.81,23.33,23.33,0,0,1,89.44,58.9Z" transform="translate(0.39 -2)"/><path class="cls-3" d="M84.05,111.7a32.07,32.07,0,0,1-28.37,1.11,24.1,24.1,0,0,1-3.58,3.9A37.11,37.11,0,0,0,88,115.29,22.9,22.9,0,0,1,84.05,111.7Z" transform="translate(0.39 -2)"/><path class="cls-3" d="M53.46,51c0-1.46-.08-2.77,0-4.06,0-.54-.19-.67-.54-.82A15.52,15.52,0,0,1,49,44c-1-.85-1.08-1-.58-2.22.33-.82.66-1.63,1-2.47a.84.84,0,0,1,.91-.61,12.1,12.1,0,0,1,4.53.88c1.14.45,1.12.45,1.9-.42a25,25,0,0,1,2-2.07A.82.82,0,0,0,59,36c-.42-1.26-.81-2.54-1.2-3.81a1.17,1.17,0,0,1-.06-.2c-.25-1.5-.12-1.73,1.27-2.34.76-.33,1.51-.71,2.3-1a1.16,1.16,0,0,1,1,.2A9.9,9.9,0,0,1,65.08,33a1.11,1.11,0,0,0,1.39.8,20.08,20.08,0,0,1,3.2-.06.59.59,0,0,0,.67-.44,15.7,15.7,0,0,1,2.52-4.38,1.19,1.19,0,0,1,1.59-.4c.89.42,1.82.74,2.74,1.07a.93.93,0,0,1,.7,1,12.45,12.45,0,0,1-1.07,4.85.91.91,0,0,0,.28,1.28A29.34,29.34,0,0,1,79.52,39a.68.68,0,0,0,.85.24A17.91,17.91,0,0,1,85,38c1.06-.07,1.23,0,1.65.91s.69,1.68,1.1,2.48a1,1,0,0,1-.29,1.45,34.09,34.09,0,0,1-3.38,2.24c-1.33.74-1.36.67-1.3,2.19a16,16,0,0,1,0,2.5c-.07.64.25.85.73,1a13.51,13.51,0,0,1,4.07,2.32c.54.46.79.87.46,1.58-.4.89-.73,1.81-1.07,2.73a1,1,0,0,1-1,.72,10.66,10.66,0,0,1-4.25-.79c-1.38-.54-1.36-.53-2.34.56a23.32,23.32,0,0,1-1.87,1.85.71.71,0,0,0-.26,1,13,13,0,0,1,1.32,4.94,1.12,1.12,0,0,1-.78,1.26c-.89.35-1.76.74-2.62,1.15a1.12,1.12,0,0,1-1.46-.3,13.51,13.51,0,0,1-2.47-3.83c-.45-1-.47-1-1.58-.86a23,23,0,0,1-3,0,.67.67,0,0,0-.76.44c-.64,1.24-1.31,2.47-2,3.7a3,3,0,0,1-.29.41c-.85,1-1.06,1-2.26.5-.68-.29-1.37-.58-2.07-.8a1.25,1.25,0,0,1-.93-1.41,12.06,12.06,0,0,1,1-4.43,1.09,1.09,0,0,0-.44-1.58,13.58,13.58,0,0,1-2.12-2.1.83.83,0,0,0-1-.29c-1.4.45-2.8.91-4.24,1.24s-1.52.2-2.1-1.13c-.32-.74-.62-1.5-1-2.22a1.11,1.11,0,0,1,.36-1.49,17.78,17.78,0,0,1,4.39-2.77Zm12.21-8.3a6.21,6.21,0,1,0,5,11.35,6.21,6.21,0,0,0-5-11.35Z" transform="translate(0.39 -2)"/></svg>