<svg id="Capa_1" data-name="Capa 1" xmlns="http://www.w3.org/2000/svg" viewBox="0 0 139.83 161.46"><defs><style>.cls-1{fill:#e31f13;}.cls-2{fill:#cc1611;}.cls-3{fill:#fff;}</style></defs><title>Control admin</title><polygon class="cls-1" points="139.83 121.09 139.83 40.36 69.91 0 0 40.36 0 121.09 69.91 161.46 139.83 121.09"/><polygon class="cls-2" points="0.55 121.41 69.91 161.46 139.83 121.09 139.83 41 0.55 121.41"/><rect class="cls-3" x="34.01" y="52.7" width="16.59" height="70.01" rx="2.23"/><rect class="cls-3" x="52.5" y="61.62" width="16.59" height="61.09" rx="2.08"/><rect class="cls-3" x="71" y="72.61" width="16.59" height="50.79" rx="1.9"/><rect class="cls-3" x="89.49" y="82.22" width="16.59" height="41.18" rx="1.71"/><polygon class="cls-3" points="103.19 72.5 85.57 54.88 78.61 61.84 61.21 44.44 55.12 50.53 36.21 31.61 39.24 28.58 55.12 44.47 61.21 38.38 78.61 55.77 85.57 48.81 106.22 69.47 103.19 72.5"/></svg>