<?xml version="1.0" standalone="no"?>
<!DOCTYPE svg PUBLIC "-//W3C//DTD SVG 20010904//EN"
 "http://www.w3.org/TR/2001/REC-SVG-20010904/DTD/svg10.dtd">
<svg version="1.0" xmlns="http://www.w3.org/2000/svg"
 width="163.000000pt" height="163.000000pt" viewBox="0 0 163.000000 163.000000"
 preserveAspectRatio="xMidYMid meet">
<metadata>
Created by potrace 1.11, written by Peter Selinger 2001-2013
</metadata>
<g transform="translate(0.000000,163.000000) scale(0.100000,-0.100000)"
fill="#000000" stroke="none">
<path d="M770 1576 c-19 -12 -60 -36 -90 -53 -30 -17 -86 -49 -125 -71 -70
-41 -70 -42 -35 -43 103 -3 197 -33 264 -84 l36 -27 -46 -54 -46 -54 -42 29
c-121 82 -282 74 -374 -20 -75 -76 -101 -174 -78 -294 26 -137 144 -226 292
-220 58 3 83 9 142 38 l42 21 0 77 c0 53 -4 78 -12 81 -7 2 -55 3 -105 3 -51
-1 -93 2 -94 7 -1 4 -2 32 -2 61 l-1 52 429 0 429 0 0 -53 -1 -54 -114 -114
c-62 -62 -111 -115 -109 -118 3 -2 21 -7 41 -11 31 -6 40 -3 68 26 30 30 34
31 58 18 34 -18 38 -31 19 -68 -14 -25 -14 -34 -4 -51 10 -16 20 -19 47 -15
18 3 37 7 41 10 11 6 26 -15 33 -45 5 -22 1 -29 -28 -44 -19 -11 -35 -22 -36
-25 -7 -48 -5 -51 37 -67 32 -12 47 -13 63 -5 25 14 22 -27 23 445 l0 349 -23
18 c-13 9 -46 29 -74 45 -27 15 -166 94 -307 176 -142 82 -263 150 -270 153
-7 2 -29 -6 -48 -19z"/>
<path d="M861 902 c-7 -2 -11 -41 -11 -112 0 -105 -1 -109 -26 -129 -26 -20
-26 -21 -11 -65 15 -43 15 -44 -9 -55 -37 -16 -45 -14 -73 20 -23 27 -29 29
-53 20 -23 -9 -27 -15 -24 -45 3 -45 -2 -52 -40 -60 -29 -7 -32 -5 -48 37 -15
40 -19 43 -46 39 -23 -3 -32 -12 -41 -41 -15 -45 -25 -51 -60 -39 -26 9 -29
15 -29 53 0 38 -3 44 -27 50 -24 6 -32 1 -59 -31 l-32 -37 -30 22 c-31 21 -31
22 -16 58 15 34 14 37 -4 56 -20 19 -21 19 -51 1 -37 -22 -40 -32 -39 -137 l1
-77 44 -30 c24 -17 46 -30 49 -30 2 0 21 -11 42 -23 20 -13 57 -35 82 -49 25
-14 138 -78 250 -143 112 -65 209 -118 215 -118 5 0 51 24 100 54 50 30 103
60 118 68 35 18 34 31 -1 31 -72 0 -179 49 -244 111 l-31 29 34 33 c67 64 65
63 106 27 59 -52 116 -73 187 -68 91 6 136 47 138 125 2 80 -66 123 -201 127
-46 1 -55 5 -62 24 -23 61 -21 64 91 183 59 63 106 116 104 118 -5 5 -278 8
-293 3z"/>
</g>
</svg>
