<svg id="Capa_1" data-name="Capa 1" xmlns="http://www.w3.org/2000/svg" viewBox="0 0 207.5 239.6"><defs><style>.cls-1{fill:#e31f13;}.cls-2{fill:#cc1611;}.cls-3{fill:#fff;}.cls-4{fill:none;stroke:#e31f13;stroke-miterlimit:10;stroke-width:7px;}</style></defs><title>Nuestro enfoque</title><polygon class="cls-1" points="155.53 149.31 155.53 89.7 103.91 59.9 52.28 89.7 52.28 149.31 103.91 179.12 155.53 149.31"/><polygon class="cls-2" points="52.69 149.55 103.91 179.12 155.53 149.31 155.53 90.17 52.69 149.55"/><path class="cls-3" d="M70.83,121.94s10.67-13.88,12.54-15.75S99.12,93.65,99.12,93.65l-6.94-9.08S75.9,95.51,74.3,97.12s-12.55,17.35-12.55,17.35Z" transform="translate(0.82 -0.88)"/><path class="cls-3" d="M99.1,116.76,85.82,103.84a1.57,1.57,0,0,0-2.23,0L81,106.41a1.57,1.57,0,0,0,0,2.23l12.92,13.28Z" transform="translate(0.82 -0.88)"/><path class="cls-3" d="M126.31,143.25l-19.23-18.72-5.37,5.37,18.72,19.23a1.6,1.6,0,0,0,2.24,0l3.64-3.64A1.6,1.6,0,0,0,126.31,143.25Z" transform="translate(0.82 -0.88)"/><path class="cls-3" d="M78,149.55l-3.64-3.64a1.59,1.59,0,0,1,0-2.23l50.9-49.83a1.59,1.59,0,0,1,2.23,0l2.57,2.57a1.58,1.58,0,0,1,0,2.24L80.23,149.55A1.58,1.58,0,0,1,78,149.55Z" transform="translate(0.82 -0.88)"/><polygon class="cls-3" points="135.26 104 116.04 84.78 107.76 93.06 126.98 112.28 145.14 122.43 135.26 104"/><polygon class="cls-4" points="204 177.68 204 61.92 103.75 4.04 3.5 61.92 3.5 177.68 103.75 235.56 204 177.68"/></svg>