<svg id="Capa_1" data-name="Capa 1" xmlns="http://www.w3.org/2000/svg" viewBox="0 0 207.5 239.6"><defs><style>.cls-3{fill:#fff}</style></defs><path fill="#e31f13" d="M155.53 149.31V89.7l-51.62-29.8-51.63 29.8v59.61l51.63 29.81 51.62-29.81z"/><path fill="#cc1611" d="M52.69 149.55l51.22 29.57 51.62-29.81V90.17L52.69 149.55z"/><path class="cls-3" d="M70.83 121.94s10.67-13.88 12.54-15.75 15.75-12.54 15.75-12.54l-6.94-9.08S75.9 95.51 74.3 97.12s-12.55 17.35-12.55 17.35z" transform="translate(.82 -.88)"/><path class="cls-3" d="M99.1 116.76l-13.28-12.92a1.57 1.57 0 00-2.23 0L81 106.41a1.57 1.57 0 000 2.23l12.92 13.28zM126.31 143.25l-19.23-18.72-5.37 5.37 18.72 19.23a1.6 1.6 0 002.24 0l3.64-3.64a1.6 1.6 0 000-2.24zM78 149.55l-3.64-3.64a1.59 1.59 0 010-2.23l50.9-49.83a1.59 1.59 0 012.23 0l2.57 2.57a1.58 1.58 0 010 2.24l-49.83 50.89a1.58 1.58 0 01-2.23 0z" transform="translate(.82 -.88)"/><path class="cls-3" d="M135.26 104l-19.22-19.22-8.28 8.28 19.22 19.22 18.16 10.15-9.88-18.43z"/><path fill="none" stroke="#e31f13" stroke-miterlimit="10" stroke-width="7" d="M204 177.68V61.92L103.75 4.04 3.5 61.92v115.76l100.25 57.88L204 177.68z"/></svg>