<svg id="Capa_1" data-name="Capa 1" xmlns="http://www.w3.org/2000/svg" viewBox="0 0 207.5 239.6"><defs><style>.cls-3{fill:#fff}</style></defs><path fill="#e31f13" d="M155.53 149.7V89.9L103.75 60 51.96 89.9v59.8l51.79 29.9 51.78-29.9z"/><path fill="#cc1611" d="M52.17 149.93l51.38 29.67 51.78-29.9V90.37L52.17 149.93z"/><path class="cls-3" d="M93.55 113l-.19-1.13h19.82l-.06.83c.26.06.59 0 .74.21a1 1 0 01.25.78c-.26 1.16-.53 2.32-.9 3.45s-.86 2.23-1.29 3.34a14.74 14.74 0 01-5 6.73 5.67 5.67 0 01-7.32.06 15 15 0 01-5.44-7.77 4.15 4.15 0 00-.47-.81 1.48 1.48 0 01-.17-.33c-.38-1.27-.76-2.55-1.12-3.84a2.12 2.12 0 01-.08-.67c.06-.78.46-1.07 1.23-.85zM99.15 98.12v7.43a2.35 2.35 0 002.66 2.67h3.09a2.25 2.25 0 002.44-2.48v-7.61a10.43 10.43 0 013.17 2.33 12.8 12.8 0 013.2 5.3c.15.52.4.69.91.63a8.8 8.8 0 01.89 0V110H91v-3.6h1c.32 0 .64-.12.78-.56a13.26 13.26 0 015.65-7.34c.15-.1.32-.19.48-.28a1.89 1.89 0 01.24-.1z" transform="translate(.82 -.88)"/><path class="cls-3" d="M100.52 101.56v-3.59c0-1.2.47-1.58 1.45-1.58h2.41a1.66 1.66 0 011.68 1.84v7.06a1.3 1.3 0 01-1.31 1.44h-2.83c-.92 0-1.39-.51-1.4-1.52-.01-1.21 0-2.43 0-3.65zM96.66 139.69H55.44a23.75 23.75 0 010-2.8 29 29 0 01.67-4 6.73 6.73 0 014.17-4.65c1.85-.78 3.74-1.45 5.6-2.23 1.27-.53 2.51-1.14 3.75-1.77a.77.77 0 011 .12 8.22 8.22 0 005.42 2.21 7.88 7.88 0 005.3-2.18.84.84 0 011.1-.12c2.67 1.21 5.35 2.38 8 3.55a10.08 10.08 0 014.11 2.72 8.57 8.57 0 011.74 4.43c.19 1.48.24 3 .34 4.46a1.06 1.06 0 01.02.26z" transform="translate(.82 -.88)"/><path class="cls-3" d="M67.36 110.75l-.17-1h17.73v.73c.23.06.52 0 .66.19a.92.92 0 01.22.7c-.23 1-.48 2.08-.81 3.09s-.77 2-1.16 3a13.17 13.17 0 01-4.43 6 5.08 5.08 0 01-6.55.05 13.22 13.22 0 01-4.86-6.94 3.88 3.88 0 00-.43-.73 1.59 1.59 0 01-.15-.29c-.34-1.14-.67-2.29-1-3.43a2 2 0 01-.07-.6c-.03-.69.34-.95 1.02-.77zM72.37 97.47v6.64a2.09 2.09 0 002.38 2.38h2.76a2 2 0 002.19-2.22v-6.8a9.43 9.43 0 012.84 2.09 11.49 11.49 0 012.86 4.74c.14.46.36.62.81.56a7.11 7.11 0 01.8 0v3.22h-22v-3.22h.91c.3 0 .57-.11.69-.5a12 12 0 015-6.57l.44-.24a.79.79 0 01.32-.08z" transform="translate(.82 -.88)"/><path class="cls-3" d="M73.6 100.54v-3.21c0-1 .42-1.41 1.29-1.41h2.15a1.49 1.49 0 011.51 1.64v6.32a1.16 1.16 0 01-1.17 1.29h-2.53c-.84 0-1.24-.46-1.25-1.36-.01-1.09 0-2.18 0-3.27zM150.8 139.22h-41.23a26.12 26.12 0 010-2.8 29 29 0 01.68-4 6.74 6.74 0 014.16-4.65c1.86-.78 3.75-1.45 5.6-2.23 1.28-.53 2.52-1.14 3.75-1.77a.78.78 0 011 .12 8.22 8.22 0 005.42 2.21 7.88 7.88 0 005.3-2.18.84.84 0 011.1-.12c2.67 1.21 5.35 2.38 8 3.55a10.08 10.08 0 014.11 2.72 8.57 8.57 0 011.74 4.43c.19 1.47.24 3 .34 4.46a1.06 1.06 0 01.03.26z" transform="translate(.82 -.88)"/><path class="cls-3" d="M121.5 110.28l-.17-1h17.73l-.06.72c.24.06.53 0 .66.19a.92.92 0 01.23.7c-.24 1-.48 2.08-.81 3.09s-.77 2-1.16 3a13.17 13.17 0 01-4.43 6 5.08 5.08 0 01-6.55.05 13.26 13.26 0 01-4.86-6.94 4.5 4.5 0 00-.43-.73 2 2 0 01-.15-.29c-.34-1.14-.68-2.29-1-3.43a2.05 2.05 0 01-.07-.6c.02-.68.39-.94 1.07-.76zM126.51 97v6.64a2.08 2.08 0 002.37 2.38h2.77a2 2 0 002.19-2.23V97a9.39 9.39 0 012.84 2.09 11.49 11.49 0 012.86 4.74c.14.46.36.62.81.56a7.11 7.11 0 01.8 0v3.22h-22v-3.22h.91c.31 0 .57-.11.69-.5a12 12 0 015-6.57c.14-.09.29-.16.43-.24a1.11 1.11 0 01.33-.08z" transform="translate(.82 -.88)"/><path class="cls-3" d="M127.73 100.07v-3.21c0-1.07.42-1.41 1.29-1.41h2.15a1.49 1.49 0 011.51 1.64v6.32a1.16 1.16 0 01-1.17 1.29h-2.54c-.85 0-1.23-.45-1.24-1.35v-3.28z" transform="translate(.82 -.88)"/><path d="M127.13 144.46h-46.1a27.2 27.2 0 010-3.13 31.21 31.21 0 01.79-4.51 7.53 7.53 0 014.66-5.2c2.07-.87 4.19-1.62 6.26-2.49 1.42-.6 2.82-1.28 4.19-2a.86.86 0 011.13.13 9.16 9.16 0 006 2.47 8.79 8.79 0 005.94-2.44 1 1 0 011.22-.13c3 1.35 6 2.66 9 4a11.2 11.2 0 014.59 3.05 9.65 9.65 0 012 4.94c.22 1.66.26 3.33.38 5a1.32 1.32 0 01-.06.31z" stroke-width="1.45" stroke="#e31f13" stroke-miterlimit="10" fill="#fff"/><path fill="none" stroke-width="7" stroke="#e31f13" stroke-miterlimit="10" d="M204 177.68V61.92L103.75 4.04 3.5 61.92v115.76l100.25 57.88L204 177.68z"/></svg>