<svg id="Capa_1" data-name="Capa 1" xmlns="http://www.w3.org/2000/svg" viewBox="0 0 140 161.66"><defs><style>.cls-3{fill:#fff}</style></defs><path fill="#e31f13" d="M140 121.24V40.41L70 0 0 40.41v80.83l70 40.42 70-40.42z"/><path fill="#cc1611" d="M.55 121.56L70 161.66l70-40.42V41.05L.55 121.56z"/><path class="cls-3" d="M67.3 98.23l10.93 1.57c-6.31 4-19.89 9.63-30.65 5.85-11.76-4.12-11.95-17.93-1.2-33.85S81 48.36 92.67 48.78s25.68 2.82 26.25 21.71c0 0 4-26.13-30.35-26-35.82.13-71.35 35.86-62.83 57.64 7.05 18 46.75 14 65.68-10.71z" transform="translate(0 -2.14)"/><path class="cls-3" d="M72.53 68l-10.92-1.58c6.31-4 19.89-9.63 30.65-5.85 11.74 4.12 11.95 17.93 1.19 33.85s-34.61 23.44-46.28 23-25.69-2.82-26.25-21.71c0 0-4.05 26.13 30.35 26 35.82-.13 71.35-35.87 62.83-57.64-7-18-46.76-14-65.69 10.71z" transform="translate(0 -2.14)"/><path class="cls-3" d="M54.76 76.73h6.9L61.33 79h-4.27l-.43 2.81h4l-.35 2.29h-4l-.47 3.14H60l-.34 2.26h-6.84zM72.38 78.08L71 79.94a14.27 14.27 0 00-1.21-.78 2 2 0 00-1-.26 1.68 1.68 0 00-1.19.42 1.39 1.39 0 00-.46 1.08 1.27 1.27 0 00.5 1 7.23 7.23 0 001.71.95 10.41 10.41 0 011.33.94 3.1 3.1 0 01.68 1 3.17 3.17 0 01.31 1.41 3.69 3.69 0 01-1.24 2.81 4.18 4.18 0 01-3 1.16A6.22 6.22 0 0163.39 88l1.49-1.84c.34.23.72.49 1.16.77a2.35 2.35 0 001.29.42 1.66 1.66 0 001.19-.46 1.44 1.44 0 00.5-1.11 1.35 1.35 0 00-.49-1 5.37 5.37 0 00-1.47-.86 6.68 6.68 0 01-1.4-.72 3.38 3.38 0 01-.82-1 3.12 3.12 0 01-.41-1.68 3.63 3.63 0 011.23-2.81 4.49 4.49 0 013.14-1.12 5.28 5.28 0 013.58 1.49zM77.11 76.73h2.42a5.88 5.88 0 013.69 1 3.39 3.39 0 011.27 2.85 4.84 4.84 0 01-.69 2.59 3.46 3.46 0 01-2.31 1.49L84 89.49h-2.69l-2.37-4.62h-.4l-.68 4.62h-2.64zm2.3 2.27l-.53 3.6h.54a2.62 2.62 0 001.69-.55 1.68 1.68 0 00.7-1.36 1.46 1.46 0 00-.59-1.3 3.21 3.21 0 00-1.81-.39z" transform="translate(0 -2.14)"/></svg>