<svg id="Capa_1" data-name="Capa 1" xmlns="http://www.w3.org/2000/svg" viewBox="0 0 139.83 161.46"><defs><style>.cls-3{fill:#fff}</style></defs><path fill="#e31f13" d="M139.83 121.09V40.36L69.91 0 0 40.36v80.73l69.91 40.37 69.92-40.37z"/><path fill="#cc1611" d="M.55 121.41l69.36 40.05 69.92-40.37V41L.55 121.41z"/><rect class="cls-3" x="34.01" y="52.7" width="16.59" height="70.01" rx="2.23"/><rect class="cls-3" x="52.5" y="61.62" width="16.59" height="61.09" rx="2.08"/><rect class="cls-3" x="71" y="72.61" width="16.59" height="50.79" rx="1.9"/><rect class="cls-3" x="89.49" y="82.22" width="16.59" height="41.18" rx="1.71"/><path class="cls-3" d="M103.19 72.5L85.57 54.88l-6.96 6.96-17.4-17.4-6.09 6.09-18.91-18.92 3.03-3.03 15.88 15.89 6.09-6.09 17.4 17.39 6.96-6.96 20.65 20.66-3.03 3.03z"/></svg>