<svg xmlns="http://www.w3.org/2000/svg" viewBox="0 0 207.5 239.6"><style>.st0{display:none}.st4{display:inline}.st5{fill:#fff}.st6{fill:#e31f13}.st7{fill:#cc1611}.st8{fill:none;stroke:#e31f13;stroke-width:7;stroke-miterlimit:10}</style><g id="Capa_1" class="st0"><path fill="#e31f13" d="M155.5 149.7V89.9L103.8 60 52 89.9v59.8l51.8 29.9z"/><path fill="#cc1611" d="M52.2 149.9l51.4 29.7 51.7-29.9V90.4z"/><path fill="none" stroke="#e31f13" stroke-width="7" stroke-miterlimit="10" d="M204 177.7V61.9L103.8 4 3.5 61.9v115.8l100.3 57.9z"/><g class="st4"><path class="st5" d="M113.3 134.5c-2.8 1.7-6.2 2.8-9.7 2.8-10.3 0-18.7-8.4-18.7-18.7 0-10.3 8.4-18.7 18.7-18.7 10.3 0 18.7 8.4 18.7 18.7 0 3.6-1 6.9-2.8 9.7l2.9 2.9c2.4-3.6 3.8-7.9 3.8-12.6 0-12.5-10.1-22.6-22.6-22.6C91.1 96 81 106.2 81 118.6c0 12.5 10.1 22.6 22.6 22.6 4.7 0 9-1.4 12.6-3.8l-2.9-2.9z"/><path class="st5" d="M116.1 125c1-1.9 1.5-4.1 1.5-6.3 0-7.7-6.3-14-14-14s-14 6.3-14 14 6.3 14 14 14c2.3 0 4.4-.6 6.3-1.5l-3-3c-1 .4-2.2.6-3.3.6-5.6 0-10.1-4.5-10.1-10.1s4.5-10.1 10.1-10.1 10.1 4.5 10.1 10.1c0 1.2-.2 2.3-.6 3.3l3 3z"/><path class="st5" d="M109.3 119.9h.3c.1-.4.1-.8.1-1.3 0-3.4-2.7-6.1-6.1-6.1-3.4 0-6.1 2.7-6.1 6.1 0 3.4 2.7 6.1 6.1 6.1.4 0 .9 0 1.3-.1v-.3l-3.2-3.2c-.6-.6-.9-1.4-.9-2.2 0-.8.3-1.6.9-2.2 1.2-1.2 3.2-1.2 4.5 0l3.1 3.2z"/><path class="st5" d="M129.4 153c.3-.1.5-.3.5-.6l.9-6.4 6.5-1c.3 0 .5-.2.6-.5v-.2c0-.2-.1-.4-.2-.5l-6.9-6.9c-.2-.2-.4-.2-.6-.2l-4.6.7-14.7-14.7c-.6-.6-1.5-.8-2.3-.6l-3.8-3.8c-.5-.5-1.2-.5-1.7 0-.2.2-.4.5-.4.8 0 .3.1.6.4.8l3.8 3.8c-.1.2-.1.4-.1.6 0 .6.2 1.2.7 1.6l14.7 14.7-.7 4.6v.1c0 .2.1.4.2.5l6.9 6.9c.2.3.5.4.8.3z"/></g></g><g id="Capa_4" class="st0"><g class="st4"><path class="st6" d="M155.5 149.7V89.9L103.8 60 52 89.9v59.8l51.8 29.9z"/><path class="st7" d="M52.2 149.9l51.4 29.7 51.7-29.9V90.4z"/><path class="st8" d="M204 177.7V61.9L103.8 4 3.5 61.9v115.8l100.3 57.9z"/><path class="st5" d="M112.9 113.5c-.4 0-.8-.4-.8-.8v-2.5c0-.4.4-.8.8-.8s.8.4.8.8v2.5c.1.4-.3.8-.8.8zM94.6 113.5c-.4 0-.8-.4-.8-.8v-2.5c0-.4.4-.8.8-.8s.8.4.8.8v2.5c0 .4-.4.8-.8.8z"/><path class="st5" d="M111.6 142.1H95.9c-.4 0-.8-.4-.8-.8v-11.1c0-.4.4-.8.8-.8h2.9l-4.8-4.8c-.2-.2-.2-.4-.2-.6v-10.5h-9.9c-.3 0-.6-.2-.8-.5-.1-.3-.1-.7.2-.9l19.9-19.9c.3-.3.8-.3 1.2 0l19.9 19.9c.2.2.3.6.2.9-.1.3-.4.5-.8.5h-9.9V124c0 .2-.1.4-.2.6l-4.8 4.8h2.9c.4 0 .8.4.8.8v11.1c-.1.4-.4.8-.9.8zm-14.9-1.7h14.1V131h-4.1c-.3 0-.6-.2-.8-.5-.1-.3-.1-.7.2-.9l6-6v-11c0-.4.4-.8.8-.8h8.8l-18-18-18 18h8.8c.4 0 .8.4.8.8v11l6 6c.2.2.3.6.2.9-.1.3-.4.5-.8.5h-4.1v9.4z"/><path class="st5" d="M120 142.1h-8.4c-.4 0-.8-.4-.8-.8V131h-4.1c-.3 0-.6-.2-.8-.5-.1-.3-.1-.7.2-.9l9.1-9.1c.3-.3.8-.3 1.2 0l9.1 9.1c.2.2.3.6.2.9-.1.3-.4.5-.8.5h-4.1v10.3c0 .4-.4.8-.8.8zm-7.6-1.7h6.7v-10.3c0-.4.4-.8.8-.8h2.9l-7.1-7.1-7.1 7.1h2.9c.4 0 .8.4.8.8v10.3zM95.9 142.1h-8.4c-.4 0-.8-.4-.8-.8V131h-4.1c-.3 0-.6-.2-.8-.5-.1-.3-.1-.7.2-.9l9.1-9.1c.3-.3.8-.3 1.2 0l9.1 9.1c.2.2.3.6.2.9-.1.3-.4.5-.8.5h-4.1v10.3c0 .4-.4.8-.8.8zm-7.6-1.7H95v-10.3c0-.4.4-.8.8-.8h2.9l-7.1-7.1-7.1 7.1h2.9c.4 0 .8.4.8.8v10.3z"/><path class="st5" d="M124.9 142.1H82.6c-.4 0-.8-.4-.8-.8s.4-.8.8-.8h42.2c.4 0 .8.4.8.8.1.4-.3.8-.7.8zM103.7 122.2c-.4 0-.8-.4-.8-.8v-3.9c0-.4.4-.8.8-.8s.8.4.8.8v3.9c.1.4-.3.8-.8.8zM103.7 114.3c-.4 0-.8-.4-.8-.8v-4c0-.4.4-.8.8-.8s.8.4.8.8v4c.1.4-.3.8-.8.8zM103.7 106.3c-.4 0-.8-.4-.8-.8v-3.9c0-.4.4-.8.8-.8s.8.4.8.8v3.9c.1.5-.3.8-.8.8z"/><path class="st5" d="M94.6 112.9l-10-.5L103.8 93l19.1 19.5-10 .4v10.6l-5.6 6.2 4 .6.2 11H95.4l.3-10.1 3.8-1.5-4.9-6.1z"/></g></g><g id="Capa_1_copia_2"><path class="st6" d="M155.5 149.7V89.9L103.8 60 52 89.9v59.8l51.8 29.9z"/><path class="st7" d="M52.2 149.9l51.4 29.7 51.7-29.9V90.4z"/><path class="st8" d="M204 177.7V61.9L103.8 4 3.5 61.9v115.8l100.3 57.9z"/><path class="st5" d="M134 114.9c0-.6-.2-1.1-.6-1.5-.4-.4-.9-.6-1.5-.6h-5.3c-.6-2.1-1.5-4.1-2.6-6l3.7-3.8c.8-.8.8-2.2-.1-3l-5.5-5.3c-.4-.4-.9-.6-1.5-.6s-1.1.2-1.5.6l-3.7 3.8c-1.9-1.1-3.9-1.9-6.1-2.4l-.1-5.2c0-.6-.2-1.1-.6-1.5-.4-.4-.9-.6-1.5-.6l-7.7.2c-.6 0-1.1.2-1.5.6-.4.4-.6.9-.6 1.5v5.3c-2.1.6-4.1 1.5-6 2.6l-3.8-3.7c-.4-.4-.9-.6-1.5-.6s-1.1.2-1.5.6l-5.3 5.5c-.8.8-.8 2.2.1 3l3.8 3.7c-1.1 1.9-1.9 3.9-2.4 6.1l-5.2.1c-1.2 0-2.1 1-2.1 2.1l.1 7.7c0 .6.2 1.1.6 1.5.4.4.9.6 1.5.6h5.3c.6 2.1 1.5 4.1 2.6 6l-3.7 3.8c-.8.8-.8 2.2.1 3l5.5 5.3c.4.4.9.6 1.5.6s1.1-.2 1.5-.6l3.7-3.8c1.9 1.1 3.9 1.9 6.1 2.4l.1 5.2c0 .6.2 1.1.6 1.5.4.4.9.6 1.5.6l7.7-.1c1.2 0 2.1-1 2.1-2.1v-5.3c2.1-.6 4.1-1.5 6-2.6l3.8 3.7c.8.8 2.2.8 3-.1l5.3-5.5c.4-.4.6-.9.6-1.5s-.2-1.1-.6-1.5l-3.8-3.7c1.1-1.9 1.9-3.9 2.4-6.1l5.2-.1c1.2 0 2.1-1 2.1-2.1l-.2-7.7zm-30.3-12.7c3.6 0 6.5 2.9 6.5 6.5s-2.9 6.5-6.5 6.5-6.5-2.9-6.5-6.5c.1-3.6 3-6.5 6.5-6.5zm-13.6 23.3c.2.5 0 1.1-.5 1.4-.1.1-.3.1-.4.1-.4 0-.8-.2-.9-.6-2.2-4.9-2.1-10.5.5-15.2 1.5-2.7 3.6-5 6.2-6.5.5-.3 1.1-.1 1.4.4.3.5.1 1.1-.4 1.4-2.3 1.4-4.2 3.4-5.5 5.7-2.2 4.1-2.4 9-.4 13.3zm26.5 6.1c0 .9-.7 1.7-1.7 1.7H92.5c-.9 0-1.7-.7-1.7-1.7V119c0-1.6 1-3 2.5-3.6h.1l4.8-1.1c.6-.1 1.1.2 1.2.8.1.6-.2 1.1-.8 1.2l-4.7 1.1c-.6.3-1.1.9-1.1 1.6v12.2H95v-7.7c0-.6.5-1 1-1 .6 0 1 .5 1 1v7.7h13.1v-7.7c0-.6.5-1 1-1s1 .5 1 1v7.7h2.2V119c0-.7-.4-1.3-1.1-1.6l-4.7-1.1c-.6-.1-.9-.7-.8-1.2.1-.6.7-.9 1.2-.8l4.8 1.1h.1c1.5.6 2.5 2 2.5 3.6v12.6zm2.7-5.2c-.2.4-.5.6-.9.6-.1 0-.3 0-.4-.1-.5-.2-.7-.8-.5-1.4 3.2-7.1.6-15.3-6.1-19.2-.5-.3-.7-.9-.4-1.4.3-.5.9-.7 1.4-.4 7.6 4.5 10.6 13.9 6.9 21.9z"/><path class="st5" d="M103.7 113.1c2.4 0 4.4-2 4.4-4.4s-2-4.4-4.4-4.4c-2.4 0-4.4 2-4.4 4.4s2 4.4 4.4 4.4z"/></g></svg>